<svg id="visual" viewBox="0 0 900 600" width="900" height="600" xmlns="http://www.w3.org/2000/svg" xmlns:xlink="http://www.w3.org/1999/xlink" version="1.1"><rect x="0" y="0" width="900" height="600" fill="#001b30"></rect><path d="M0 234L13.7 255.3C27.3 276.7 54.7 319.3 82 301.8C109.3 284.3 136.7 206.7 163.8 207.3C191 208 218 287 245.2 287.7C272.3 288.3 299.7 210.7 327 209.7C354.3 208.7 381.7 284.3 409 305.7C436.3 327 463.7 294 491 279.3C518.3 264.7 545.7 268.3 573 246.3C600.3 224.3 627.7 176.7 654.8 153.5C682 130.3 709 131.7 736.2 143.2C763.3 154.7 790.7 176.3 818 177.8C845.3 179.3 872.7 160.7 886.3 151.3L900 142L900 601L886.3 601C872.7 601 845.3 601 818 601C790.7 601 763.3 601 736.2 601C709 601 682 601 654.8 601C627.7 601 600.3 601 573 601C545.7 601 518.3 601 491 601C463.7 601 436.3 601 409 601C381.7 601 354.3 601 327 601C299.7 601 272.3 601 245.2 601C218 601 191 601 163.8 601C136.7 601 109.3 601 82 601C54.7 601 27.3 601 13.7 601L0 601Z" fill="#1b2c5f"></path><path d="M0 276L13.7 258.2C27.3 240.3 54.7 204.7 82 186.3C109.3 168 136.7 167 163.8 208C191 249 218 332 245.2 380.3C272.3 428.7 299.7 442.3 327 402.2C354.3 362 381.7 268 409 267.3C436.3 266.7 463.7 359.3 491 372C518.3 384.7 545.7 317.3 573 291.2C600.3 265 627.7 280 654.8 295C682 310 709 325 736.2 342.2C763.3 359.3 790.7 378.7 818 388.7C845.3 398.7 872.7 399.3 886.3 399.7L900 400L900 601L886.3 601C872.7 601 845.3 601 818 601C790.7 601 763.3 601 736.2 601C709 601 682 601 654.8 601C627.7 601 600.3 601 573 601C545.7 601 518.3 601 491 601C463.7 601 436.3 601 409 601C381.7 601 354.3 601 327 601C299.7 601 272.3 601 245.2 601C218 601 191 601 163.8 601C136.7 601 109.3 601 82 601C54.7 601 27.3 601 13.7 601L0 601Z" fill="#1c285b"></path><path d="M0 429L13.7 421.8C27.3 414.7 54.7 400.3 82 397.7C109.3 395 136.7 404 163.8 398.5C191 393 218 373 245.2 377.8C272.3 382.7 299.7 412.3 327 431.8C354.3 451.3 381.7 460.7 409 434.3C436.3 408 463.7 346 491 339.8C518.3 333.7 545.7 383.3 573 388.3C600.3 393.3 627.7 353.7 654.8 337.7C682 321.7 709 329.3 736.2 329C763.3 328.7 790.7 320.3 818 311.5C845.3 302.7 872.7 293.3 886.3 288.7L900 284L900 601L886.3 601C872.7 601 845.3 601 818 601C790.7 601 763.3 601 736.2 601C709 601 682 601 654.8 601C627.7 601 600.3 601 573 601C545.7 601 518.3 601 491 601C463.7 601 436.3 601 409 601C381.7 601 354.3 601 327 601C299.7 601 272.3 601 245.2 601C218 601 191 601 163.8 601C136.7 601 109.3 601 82 601C54.7 601 27.3 601 13.7 601L0 601Z" fill="#1c2456"></path><path d="M0 375L13.7 359.3C27.3 343.7 54.7 312.3 82 328C109.3 343.7 136.7 406.3 163.8 434.2C191 462 218 455 245.2 429.2C272.3 403.3 299.7 358.7 327 342.3C354.3 326 381.7 338 409 357.7C436.3 377.3 463.7 404.7 491 421.5C518.3 438.3 545.7 444.7 573 442.2C600.3 439.7 627.7 428.3 654.8 411C682 393.7 709 370.3 736.2 346.3C763.3 322.3 790.7 297.7 818 302.2C845.3 306.7 872.7 340.3 886.3 357.2L900 374L900 601L886.3 601C872.7 601 845.3 601 818 601C790.7 601 763.3 601 736.2 601C709 601 682 601 654.8 601C627.7 601 600.3 601 573 601C545.7 601 518.3 601 491 601C463.7 601 436.3 601 409 601C381.7 601 354.3 601 327 601C299.7 601 272.3 601 245.2 601C218 601 191 601 163.8 601C136.7 601 109.3 601 82 601C54.7 601 27.3 601 13.7 601L0 601Z" fill="#1c2152"></path><path d="M0 347L13.7 350.7C27.3 354.3 54.7 361.7 82 382.2C109.3 402.7 136.7 436.3 163.8 454.8C191 473.3 218 476.7 245.2 478.3C272.3 480 299.7 480 327 478.7C354.3 477.3 381.7 474.7 409 459.2C436.3 443.7 463.7 415.3 491 415.3C518.3 415.3 545.7 443.7 573 462.3C600.3 481 627.7 490 654.8 494.8C682 499.7 709 500.3 736.2 497.7C763.3 495 790.7 489 818 467C845.3 445 872.7 407 886.3 388L900 369L900 601L886.3 601C872.7 601 845.3 601 818 601C790.7 601 763.3 601 736.2 601C709 601 682 601 654.8 601C627.7 601 600.3 601 573 601C545.7 601 518.3 601 491 601C463.7 601 436.3 601 409 601C381.7 601 354.3 601 327 601C299.7 601 272.3 601 245.2 601C218 601 191 601 163.8 601C136.7 601 109.3 601 82 601C54.7 601 27.3 601 13.7 601L0 601Z" fill="#1c1d4d"></path><path d="M0 469L13.7 456.7C27.3 444.3 54.7 419.7 82 421C109.3 422.3 136.7 449.7 163.8 454C191 458.3 218 439.7 245.2 422.5C272.3 405.3 299.7 389.7 327 387.2C354.3 384.7 381.7 395.3 409 409C436.3 422.7 463.7 439.3 491 432.2C518.3 425 545.7 394 573 385.5C600.3 377 627.7 391 654.8 394.3C682 397.7 709 390.3 736.2 398.8C763.3 407.3 790.7 431.7 818 440.3C845.3 449 872.7 442 886.3 438.5L900 435L900 601L886.3 601C872.7 601 845.3 601 818 601C790.7 601 763.3 601 736.2 601C709 601 682 601 654.8 601C627.7 601 600.3 601 573 601C545.7 601 518.3 601 491 601C463.7 601 436.3 601 409 601C381.7 601 354.3 601 327 601C299.7 601 272.3 601 245.2 601C218 601 191 601 163.8 601C136.7 601 109.3 601 82 601C54.7 601 27.3 601 13.7 601L0 601Z" fill="#1c1948"></path><path d="M0 509L13.7 512.3C27.3 515.7 54.7 522.3 82 521.2C109.3 520 136.7 511 163.8 512.8C191 514.7 218 527.3 245.2 515C272.3 502.7 299.7 465.3 327 457.5C354.3 449.7 381.7 471.3 409 483.7C436.3 496 463.7 499 491 491.2C518.3 483.3 545.7 464.7 573 467C600.3 469.3 627.7 492.7 654.8 487.3C682 482 709 448 736.2 448.5C763.3 449 790.7 484 818 497C845.3 510 872.7 501 886.3 496.5L900 492L900 601L886.3 601C872.7 601 845.3 601 818 601C790.7 601 763.3 601 736.2 601C709 601 682 601 654.8 601C627.7 601 600.3 601 573 601C545.7 601 518.3 601 491 601C463.7 601 436.3 601 409 601C381.7 601 354.3 601 327 601C299.7 601 272.3 601 245.2 601C218 601 191 601 163.8 601C136.7 601 109.3 601 82 601C54.7 601 27.3 601 13.7 601L0 601Z" fill="#1b1644"></path><path d="M0 471L13.7 473.5C27.3 476 54.7 481 82 484.7C109.3 488.3 136.7 490.7 163.8 486.8C191 483 218 473 245.2 478C272.3 483 299.7 503 327 513C354.3 523 381.7 523 409 519.3C436.3 515.7 463.7 508.3 491 503C518.3 497.7 545.7 494.3 573 488.8C600.3 483.3 627.7 475.7 654.8 475.5C682 475.3 709 482.7 736.2 487.8C763.3 493 790.7 496 818 492.3C845.3 488.7 872.7 478.3 886.3 473.2L900 468L900 601L886.3 601C872.7 601 845.3 601 818 601C790.7 601 763.3 601 736.2 601C709 601 682 601 654.8 601C627.7 601 600.3 601 573 601C545.7 601 518.3 601 491 601C463.7 601 436.3 601 409 601C381.7 601 354.3 601 327 601C299.7 601 272.3 601 245.2 601C218 601 191 601 163.8 601C136.7 601 109.3 601 82 601C54.7 601 27.3 601 13.7 601L0 601Z" fill="#1b123f"></path><path d="M0 519L13.7 516.3C27.3 513.7 54.7 508.3 82 507.3C109.3 506.3 136.7 509.7 163.8 510.3C191 511 218 509 245.2 518.3C272.3 527.7 299.7 548.3 327 550.7C354.3 553 381.7 537 409 531.3C436.3 525.7 463.7 530.3 491 538.7C518.3 547 545.7 559 573 553.7C600.3 548.3 627.7 525.7 654.8 519.2C682 512.7 709 522.3 736.2 523.5C763.3 524.7 790.7 517.3 818 517.3C845.3 517.3 872.7 524.7 886.3 528.3L900 532L900 601L886.3 601C872.7 601 845.3 601 818 601C790.7 601 763.3 601 736.2 601C709 601 682 601 654.8 601C627.7 601 600.3 601 573 601C545.7 601 518.3 601 491 601C463.7 601 436.3 601 409 601C381.7 601 354.3 601 327 601C299.7 601 272.3 601 245.2 601C218 601 191 601 163.8 601C136.7 601 109.3 601 82 601C54.7 601 27.3 601 13.7 601L0 601Z" fill="#1a0e3b"></path></svg>